<svg id="Capa_1" data-name="Capa 1" xmlns="http://www.w3.org/2000/svg" viewBox="0 0 84.87 189.11"><defs><style>.cls-1{fill:#eac798;stroke:#12100b;stroke-miterlimit:10;stroke-width:0.82px;}</style></defs><path class="cls-1" d="M107.79,187.53v-1.18a8,8,0,0,0,5.72-8.38,8.22,8.22,0,0,0-8.28-7.22,2.32,2.32,0,0,1-2.28-1.83l-1.6-7.26a81.81,81.81,0,0,0-3.25-11c-3.79-10.15-11.8-9.49-5.46-35a6.28,6.28,0,0,1,3-4c2.3-1.27,5.17-3.7,2.17-7a8.71,8.71,0,0,1-2.1-5.09,2.58,2.58,0,0,0-1.67-2.26,6.84,6.84,0,0,1-3.71-7.47c.79-4.48,3.15-10.66,9.51-17.06l-.14-.08V65.39h0V54.83A24.21,24.21,0,0,1,96.08,58c-.93-6.82-4.37-15.77-13.63-26.19A7.46,7.46,0,0,0,83,29c0-3.71-2.62-6.72-5.86-6.72s-5.86,3-5.86,6.72a7.46,7.46,0,0,0,.55,2.82C62.58,42.24,59.13,51.19,58.21,58a23.74,23.74,0,0,1-3.68-3.18V65.39h0v7.24l-.14.08c6.36,6.4,8.72,12.58,9.51,17.06a6.85,6.85,0,0,1-3.72,7.47,2.61,2.61,0,0,0-1.67,2.26,8.58,8.58,0,0,1-2.1,5.09c-3,3.34-.13,5.77,2.17,7a6.33,6.33,0,0,1,3.06,4c6.34,25.48-1.67,24.82-5.46,35a81.81,81.81,0,0,0-3.25,11l-1.6,7.26a2.34,2.34,0,0,1-2.28,1.83A8.21,8.21,0,0,0,40.78,178a8,8,0,0,0,5.72,8.38v1.18a11.56,11.56,0,0,0-11.35,12.39,11.82,11.82,0,0,0,11.92,10.66h60.15a11.81,11.81,0,0,0,11.91-10.66A11.55,11.55,0,0,0,107.79,187.53Z" transform="translate(-34.71 -21.87)"/></svg>