<svg id="Capa_1" data-name="Capa 1" xmlns="http://www.w3.org/2000/svg" viewBox="0 0 80.54 179.47"><defs><style>.cls-1{fill:#12100b;stroke:#eac798;stroke-miterlimit:10;stroke-width:0.78px;}</style></defs><path class="cls-1" d="M106.22,183.91v-1.13a7.56,7.56,0,0,0,5.43-7.95,7.8,7.8,0,0,0-7.86-6.85,2.22,2.22,0,0,1-2.16-1.73l-1.52-6.89A76.42,76.42,0,0,0,97,148.87c-3.6-9.63-11.2-9-5.18-33.19a6,6,0,0,1,2.9-3.81c2.18-1.2,4.9-3.5,2.06-6.67a8.22,8.22,0,0,1-2-4.83,2.49,2.49,0,0,0-1.58-2.16,6.48,6.48,0,0,1-3.53-7.08c.75-4.26,3-10.12,9-16.19l-.13-.08V68h0V58a22.32,22.32,0,0,1-3.49,3C94.23,54.52,91,46,82.18,36.14a7.15,7.15,0,0,0,.52-2.68c0-3.52-2.49-6.38-5.56-6.38s-5.56,2.86-5.56,6.38a7.15,7.15,0,0,0,.52,2.68C63.32,46,60.05,54.52,59.17,61a22.79,22.79,0,0,1-3.49-3V68h0v6.87l-.13.08c6,6.07,8.27,11.93,9,16.19a6.48,6.48,0,0,1-3.52,7.08,2.49,2.49,0,0,0-1.59,2.16,8.2,8.2,0,0,1-2,4.83c-2.85,3.17-.13,5.47,2.06,6.67a6,6,0,0,1,2.9,3.81c6,24.18-1.59,23.56-5.19,33.19a79.33,79.33,0,0,0-3.08,10.49l-1.52,6.89A2.21,2.21,0,0,1,50.49,168a7.81,7.81,0,0,0-7.86,6.85,7.56,7.56,0,0,0,5.43,7.95v1.13a11,11,0,0,0-10.77,11.75A11.21,11.21,0,0,0,48.6,205.77h57.09A11.2,11.2,0,0,0,117,195.66,11,11,0,0,0,106.22,183.91Z" transform="translate(-36.87 -26.69)"/></svg>