<svg id="Capa_1" data-name="Capa 1" xmlns="http://www.w3.org/2000/svg" viewBox="0 0 118.88 189.39"><defs><style>.cls-1{fill:#12100b;stroke:#eac798;stroke-miterlimit:10;stroke-width:0.93px;}</style></defs><path class="cls-1" d="M25.13,184.65h3.54v-1.54a7,7,0,0,1-4.16-6.35v-4.07a7,7,0,0,1,7-7h2.43c-25.24-37.26-3-73.37-3-73.37,2.43-5.26-1.4-10.25,1.61-14.87A163.93,163.93,0,0,1,57.14,48.24c12.8-8.93,8.45-17,8.45-17-.7-5.2,3.5-5.33,3.5-5.33l.16,3.51,3.64,6.89L76.41,35c4.93-2.77-5.16-17.23,1.39-11.5a15.27,15.27,0,0,1,5.57,12.75c1.2,1.77,12.24,7.46,12.24,7.46L99.68,45,102.42,50c1.29,1.52,25.19,10.72,25.19,10.72l4.26.76s-2.12-.16,1.38,1.69,1.62,7.35,1.62,7.35c2.48,4.9.78,7.49-1,8.78h0s-1.16,6.07-7.47,5.75h0c-3.27-.19-5.87-3.82-5.87-3.82-.63,1.68-7.16.41-7.16.41s-4,1.32-5.14.41-3.16,1.54-3.89.62-5-1-5-1a13.33,13.33,0,0,1-13.26,2.29c-16.07,2,10,43.19,10,43.19L98,131c4.25,16.82,2.19,26.73-3.16,31.57l1.41,3.21h5.08a7,7,0,0,1,7,7v4.07a7,7,0,0,1-2.49,5.3h0v2.59h3.59a7,7,0,0,1,7,7v12.07a7,7,0,0,1-7,7H25.13a7,7,0,0,1-7-7V191.62A7,7,0,0,1,25.13,184.65Z" transform="translate(-17.7 -21.73)"/></svg>