<svg id="Capa_1" data-name="Capa 1" xmlns="http://www.w3.org/2000/svg" viewBox="0 0 106.83 170.18"><defs><style>.cls-1{fill:#eac798;stroke:#12100b;stroke-miterlimit:10;stroke-width:0.83px;}</style></defs><path class="cls-1" d="M126.68,177.73h-3.17v-1.38a6.26,6.26,0,0,0,3.73-5.71V167a6.28,6.28,0,0,0-6.26-6.26H118.8c22.67-33.48,2.71-65.93,2.71-65.93-2.19-4.72,1.26-9.21-1.45-13.36A147.13,147.13,0,0,0,97.92,55.15c-11.5-8-7.59-15.27-7.59-15.27.63-4.68-3.14-4.79-3.14-4.79L87,38.24l-3.27,6.19L80.6,43.28C76.17,40.8,85.24,27.8,79.36,33a13.73,13.73,0,0,0-5,11.46c-1.08,1.59-11,6.7-11,6.7l-3.66,1.16-2.46,4.44c-1.16,1.36-22.64,9.64-22.64,9.64L30.77,67s1.9-.15-1.24,1.51-1.46,6.61-1.46,6.61c-2.23,4.4-.7,6.73.89,7.89h0s1,5.45,6.71,5.16h0c2.94-.16,5.27-3.43,5.27-3.43.57,1.51,6.44.37,6.44.37s3.54,1.19,4.61.37,2.84,1.38,3.5.55,4.5-.9,4.5-.9A12,12,0,0,0,71.9,87.22C86.35,89,63,126,63,126l-1.73,3.45c-3.82,15.11-2,24,2.84,28.36l-1.27,2.89H58.24A6.28,6.28,0,0,0,52,167v3.65a6.2,6.2,0,0,0,2.23,4.76h0v2.33H51A6.28,6.28,0,0,0,44.72,184v10.85A6.27,6.27,0,0,0,51,201.1h75.7a6.27,6.27,0,0,0,6.26-6.26V184A6.28,6.28,0,0,0,126.68,177.73Z" transform="translate(-26.53 -31.34)"/></svg>