<svg xmlns="http://www.w3.org/2000/svg" viewBox="0 0 106.83 170.18"><defs><style>.cls-1{fill:#eac798;stroke:#12100b;stroke-miterlimit:10;stroke-width:0.83px;}</style></defs><g id="Capa_2" data-name="Capa 2"><g id="Capa_1-2" data-name="Capa 1"><path class="cls-1" d="M6.68,146.4H9.85V145a6.28,6.28,0,0,1-3.73-5.72v-3.65a6.28,6.28,0,0,1,6.26-6.26h2.18c-22.67-33.48-2.71-65.93-2.71-65.93,2.18-4.72-1.26-9.21,1.45-13.35a147,147,0,0,1,22.14-26.3C46.94,15.79,43,8.55,43,8.55c-.63-4.69,3.14-4.8,3.14-4.8l.15,3.15,3.27,6.2L52.75,12C57.19,9.46,48.12-3.54,54,1.61a13.73,13.73,0,0,1,5,11.46c1.08,1.59,11,6.7,11,6.7l3.66,1.17,2.46,4.43C77.29,26.74,98.77,35,98.77,35l3.82.68s-1.9-.14,1.24,1.52,1.46,6.6,1.46,6.6c2.23,4.41.7,6.73-.89,7.89h0s-1,5.46-6.71,5.17h0c-2.94-.17-5.27-3.44-5.27-3.44-.57,1.51-6.44.37-6.44.37s-3.54,1.19-4.61.37-2.84,1.39-3.5.56-4.5-.91-4.5-.91a12,12,0,0,1-11.92,2.06c-14.44,1.83,9,38.81,9,38.81l1.73,3.45c3.82,15.12,2,24-2.84,28.37l1.27,2.88h4.56a6.28,6.28,0,0,1,6.26,6.26v3.65a6.24,6.24,0,0,1-2.23,4.77h0v2.33h3.23a6.27,6.27,0,0,1,6.26,6.26v10.85a6.28,6.28,0,0,1-6.26,6.26H6.68a6.28,6.28,0,0,1-6.26-6.26V152.66A6.27,6.27,0,0,1,6.68,146.4Z"/></g></g></svg>