<svg id="Capa_1" data-name="Capa 1" xmlns="http://www.w3.org/2000/svg" viewBox="0 0 118.88 189.39"><defs><style>.cls-1{fill:#12100b;stroke:#eac798;stroke-miterlimit:10;stroke-width:0.93px;}</style></defs><path class="cls-1" d="M129.15,184.65h-3.53v-1.54a7,7,0,0,0,4.15-6.35v-4.07a7,7,0,0,0-7-7h-2.43c25.23-37.26,3-73.37,3-73.37-2.44-5.26,1.4-10.25-1.62-14.87A163.65,163.65,0,0,0,97.15,48.24c-12.81-8.93-8.45-17-8.45-17,.7-5.2-3.5-5.33-3.5-5.33L85,29.42,81.4,36.31,77.87,35C72.94,32.26,83,17.8,76.49,23.53a15.26,15.26,0,0,0-5.58,12.75c-1.2,1.77-12.23,7.46-12.23,7.46L54.61,45,51.86,50c-1.29,1.52-25.19,10.72-25.19,10.72l-4.25.76s2.12-.16-1.38,1.69-1.63,7.35-1.63,7.35c-2.48,4.9-.78,7.49,1,8.78h0s1.15,6.07,7.47,5.75h0c3.27-.19,5.86-3.82,5.86-3.82.64,1.68,7.17.41,7.17.41S44.84,82.93,46,82s3.16,1.54,3.9.62,5-1,5-1a13.33,13.33,0,0,0,13.26,2.29c16.07,2-9.95,43.19-9.95,43.19L56.32,131c-4.26,16.82-2.2,26.73,3.16,31.57l-1.42,3.21H53a7,7,0,0,0-7,7v4.07a6.94,6.94,0,0,0,2.48,5.3h0v2.59H44.9a7,7,0,0,0-7,7v12.07a7,7,0,0,0,7,7h84.25a7,7,0,0,0,7-7V191.62A7,7,0,0,0,129.15,184.65Z" transform="translate(-17.7 -21.73)"/></svg>