<svg id="Capa_1" data-name="Capa 1" xmlns="http://www.w3.org/2000/svg" viewBox="0 0 111.03 199.61"><defs><style>.cls-1{fill:#12100b;stroke:#eac798;stroke-miterlimit:10;}</style></defs><path class="cls-1" d="M118.69,184.86V183.3a10.42,10.42,0,0,0,7.48-11,10.73,10.73,0,0,0-10.83-9.44,3.06,3.06,0,0,1-3-2.4l-2.09-5.62A108.42,108.42,0,0,0,106,140.41c-5-13.29-15.45,8.94-7.15-24.41a8.2,8.2,0,0,1,4-5.25c3-1.66,6.77-4.84,2.85-9.22A11.27,11.27,0,0,1,103,94.87a3.43,3.43,0,0,0-2.19-3,8.68,8.68,0,0,1-4.93-7,36.43,36.43,0,1,0-34.52,0,8.68,8.68,0,0,1-4.93,7,3.41,3.41,0,0,0-2.18,3,11.35,11.35,0,0,1-2.76,6.66c-3.92,4.38-.17,7.56,2.85,9.22a8.2,8.2,0,0,1,4,5.25c8.31,33.35-2.18,11.12-7.14,24.41a107,107,0,0,0-4.26,14.46l-2.09,5.62a3.06,3.06,0,0,1-3,2.4A10.74,10.74,0,0,0,31,172.33a10.42,10.42,0,0,0,7.48,11v1.56A15.12,15.12,0,0,0,23.6,201.07c.6,8,7.61,14,15.6,14h78.74c8,0,15-6,15.6-14A15.12,15.12,0,0,0,118.69,184.86Z" transform="translate(-23.06 -15.91)"/></svg>