<svg id="Capa_1" data-name="Capa 1" xmlns="http://www.w3.org/2000/svg" viewBox="0 0 111.03 199.61"><defs><style>.cls-1{fill:#eac798;stroke:#12100b;stroke-miterlimit:10;}</style></defs><path class="cls-1" d="M117.26,185.57V184a10.44,10.44,0,0,0,7.49-11,10.76,10.76,0,0,0-10.84-9.45,3,3,0,0,1-3-2.39l-2.1-5.62a107.09,107.09,0,0,0-4.25-14.47c-5-13.28-15.45,8.94-7.15-24.41a8.24,8.24,0,0,1,4-5.25c3-1.66,6.76-4.84,2.84-9.21a11.27,11.27,0,0,1-2.75-6.66,3.42,3.42,0,0,0-2.19-3,8.69,8.69,0,0,1-4.93-7,36.43,36.43,0,1,0-34.52,0,8.69,8.69,0,0,1-4.93,7,3.39,3.39,0,0,0-2.18,3A11.33,11.33,0,0,1,50,102.25c-3.93,4.37-.17,7.55,2.84,9.21a8.27,8.27,0,0,1,4,5.25c8.3,33.35-2.19,11.13-7.15,24.41a107.09,107.09,0,0,0-4.25,14.47l-2.1,5.62a3,3,0,0,1-3,2.39,10.75,10.75,0,0,0-10.84,9.45A10.43,10.43,0,0,0,37,184v1.55a15.13,15.13,0,0,0-14.86,16.22c.6,8,7.61,13.94,15.6,13.94h78.75c8,0,15-6,15.59-13.94A15.12,15.12,0,0,0,117.26,185.57Z" transform="translate(-21.63 -16.62)"/></svg>