<?xml version="1.0" encoding="UTF-8"?>
<svg id="Capa_1" data-name="Capa 1" xmlns="http://www.w3.org/2000/svg" viewBox="0 0 88.75 128.87">
  <defs>
    <style>
      .cls-1 {
        fill: #1d1d1b;
        stroke-width: 0px;
      }
    </style>
  </defs>
  <path class="cls-1" d="m88.24,107.07h-2.35c-1.78,0-3.23-1.66-3.23-3.7,0-1.79-1.27-3.24-2.83-3.24h-.04c-.26,0-.47-.21-.51-.5l-4.81-36.56c6.02-6.7,9.68-15.55,9.68-25.26C84.15,16.92,67.22,0,46.34,0S8.54,16.92,8.54,37.8c0,9.8,3.73,18.72,9.84,25.44l-4.79,36.38c-.04.29-.26.5-.51.5h-1.99c-1.26,0-2.28,1.17-2.28,2.61,0,2.39-1.7,4.34-3.79,4.34H.52c-.29,0-.52.26-.52.59v20.62c0,.33.23.59.52.59h87.72c.29,0,.52-.26.52-.59v-20.62c0-.33-.23-.59-.52-.59Z"/>
</svg>