<svg id="Capa_1" data-name="Capa 1" xmlns="http://www.w3.org/2000/svg" viewBox="0 0 92.19 205.75"><defs><style>.cls-1{fill:#eac798;stroke:#12100b;stroke-miterlimit:10;stroke-width:0.89px;}</style></defs><path class="cls-1" d="M120.61,193.83v-1.29a8.67,8.67,0,0,0,6.21-9.11,8.92,8.92,0,0,0-9-7.83,2.55,2.55,0,0,1-2.48-2l-1.74-7.89a87.79,87.79,0,0,0-3.53-12c-4.12-11-12.82-39.34-5.93-67a6.85,6.85,0,0,1,3.32-4.36c2.5-1.38,5.61-4,2.36-7.64a9.4,9.4,0,0,1-2.29-5.53,2.79,2.79,0,0,0-1.81-2.46,7.44,7.44,0,0,1-4-8.11c.86-4.87,3.43-11.58,10.33-18.54l-.14-.09V32.12h0V20.65a31.53,31.53,0,0,1-10.67,7.25c-.35.16-.71.29-1.07.43l3.49-3.19-2.92-4.64h-10a4.13,4.13,0,1,0-6.76,0h-10L71,25.14l3.5,3.19c-.36-.14-.72-.27-1.07-.43a31.57,31.57,0,0,1-10.68-7.25V32.12h0V40l-.15.09c6.91,7,9.47,13.67,10.33,18.54a7.44,7.44,0,0,1-4,8.11,2.83,2.83,0,0,0-1.81,2.46,9.39,9.39,0,0,1-2.28,5.53c-3.26,3.63-.14,6.26,2.36,7.64a6.83,6.83,0,0,1,3.31,4.36c6.89,27.67-1.81,56-5.93,67a89.23,89.23,0,0,0-3.53,12l-1.74,7.89a2.53,2.53,0,0,1-2.47,2,8.91,8.91,0,0,0-9,7.83A8.66,8.66,0,0,0,54,192.54v1.29A12.54,12.54,0,0,0,41.7,207.28a12.84,12.84,0,0,0,12.95,11.58H120a12.83,12.83,0,0,0,12.94-11.58A12.54,12.54,0,0,0,120.61,193.83Z" transform="translate(-41.22 -13.55)"/></svg>