<svg id="Capa_1" data-name="Capa 1" xmlns="http://www.w3.org/2000/svg" viewBox="0 0 87.75 195.84"><defs><style>.cls-1{fill:#12100b;stroke:#eac798;stroke-miterlimit:10;stroke-width:0.85px;}</style></defs><path class="cls-1" d="M116.81,190.1v-1.23a8.24,8.24,0,0,0,5.91-8.66,8.49,8.49,0,0,0-8.56-7.46,2.43,2.43,0,0,1-2.36-1.89l-1.65-7.51a86,86,0,0,0-3.36-11.43c-3.92-10.49-12.2-37.44-5.65-63.78A6.53,6.53,0,0,1,104.3,84c2.38-1.31,5.34-3.82,2.25-7.27a8.91,8.91,0,0,1-2.18-5.27,2.69,2.69,0,0,0-1.72-2.34A7.07,7.07,0,0,1,98.8,61.4c.82-4.65,3.26-11,9.84-17.65l-.15-.08V36.18h0V25.26a29.8,29.8,0,0,1-10.16,6.9c-.33.15-.68.27-1,.41l3.32-3-2.78-4.41H88.34a4,4,0,0,0,.71-2.26,3.93,3.93,0,1,0-7.86,0,4,4,0,0,0,.71,2.26H72.37l-2.78,4.41,3.32,3c-.33-.14-.68-.26-1-.41a29.8,29.8,0,0,1-10.16-6.9V36.18h0v7.49l-.15.08c6.58,6.62,9,13,9.84,17.65a7.07,7.07,0,0,1-3.85,7.71,2.69,2.69,0,0,0-1.72,2.34,8.91,8.91,0,0,1-2.18,5.27c-3.09,3.45-.13,6,2.25,7.27a6.53,6.53,0,0,1,3.16,4.15c6.55,26.34-1.73,53.29-5.65,63.78a86,86,0,0,0-3.36,11.43l-1.65,7.51a2.43,2.43,0,0,1-2.36,1.89,8.49,8.49,0,0,0-8.56,7.46,8.24,8.24,0,0,0,5.91,8.66v1.23A12,12,0,0,0,41.7,202.91a12.21,12.21,0,0,0,12.32,11h62.2a12.21,12.21,0,0,0,12.32-11A12,12,0,0,0,116.81,190.1Z" transform="translate(-41.24 -18.51)"/></svg>