<svg id="Capa_1" data-name="Capa 1" xmlns="http://www.w3.org/2000/svg" viewBox="0 0 86.35 199.79"><defs><style>.cls-1{fill:#eac798;stroke:#12100b;stroke-miterlimit:10;stroke-width:0.81px;}</style></defs><path class="cls-1" d="M114.87,194.49v-1.17A7.82,7.82,0,0,0,112.68,178h-2.17l-3.41-15.46s-16-35-6.32-67.94c0,0,11.45-3.8,1.59-10.13,0,0,3.33-5.91-4.72-5.49,0,0-2.7-11.39,9.45-23.63l-.14-.08V46.55a77.1,77.1,0,0,0-15.75-3,2.4,2.4,0,0,0,0-.28,2.2,2.2,0,0,0-2.19-2.19H88V33h4.81a3.35,3.35,0,0,0,0-6.69H88V21.5a3.34,3.34,0,0,0-6.68,0v4.8H76.52a3.35,3.35,0,0,0,0,6.69h4.81v8.1h-1a2.2,2.2,0,0,0-2.19,2.19,2.3,2.3,0,0,0,0,.26,65.67,65.67,0,0,0-15.75,3v8.79C74.53,67.58,71.83,79,71.83,79c-8.06-.42-4.73,5.49-4.73,5.49-9.86,6.33,1.6,10.13,1.6,10.13,9.72,32.91-6.32,67.94-6.32,67.94L59,178H55.39a7.83,7.83,0,0,0-2.78,15.15v1.34h-.77a11.33,11.33,0,0,0,0,22.66h62.88a11.33,11.33,0,0,0,.15-22.65Z" transform="translate(-40.1 -17.75)"/></svg>