<svg id="Capa_1" data-name="Capa 1" xmlns="http://www.w3.org/2000/svg" viewBox="0 0 78.69 182.06"><defs><style>.cls-1{fill:#12100b;stroke:#eac798;stroke-miterlimit:10;stroke-width:0.74px;}</style></defs><path class="cls-1" d="M108.41,186.45v-1.06a7.12,7.12,0,0,0-2-14h-2l-3.1-14.09s-14.62-31.92-5.76-61.92c0,0,10.43-3.46,1.45-9.23,0,0,3-5.38-4.3-5,0,0-2.47-10.38,8.61-21.53l-.13-.08V51.64a69.54,69.54,0,0,0-14.35-2.72,2.28,2.28,0,0,0,0-.26,2,2,0,0,0-2-2h-.94V39.28h4.37a3,3,0,1,0,0-6.09H83.94V28.81a3.05,3.05,0,0,0-6.1,0v4.38H73.47a3,3,0,1,0,0,6.09h4.37v7.38H76.9a2,2,0,0,0-2,2,1.64,1.64,0,0,0,0,.23,60,60,0,0,0-14.35,2.75v8c11.07,11.15,8.61,21.53,8.61,21.53-7.34-.38-4.31,5-4.31,5-9,5.77,1.45,9.23,1.45,9.23,8.86,30-5.75,61.92-5.75,61.92l-3.11,14.09H54.21a7.13,7.13,0,0,0-2.53,13.8v1.22H51a10.33,10.33,0,1,0,0,20.65h57.3a10.32,10.32,0,0,0,.14-20.64Z" transform="translate(-40.28 -25.4)"/></svg>