<?xml version="1.0" encoding="UTF-8"?>
<svg id="Capa_1" data-name="Capa 1" xmlns="http://www.w3.org/2000/svg" viewBox="0 0 192.14 248.4">
  <defs>
    <style>
      .cls-1 {
        fill: #fff;
        stroke: #1d1d1b;
        stroke-miterlimit: 10;
      }
    </style>
  </defs>
  <path class="cls-1" d="m191.64,79.4V1.77c0-.7-.5-1.27-1.11-1.27h-50.28c-.61,0-1.11.57-1.11,1.27v77.63c0,.7-.5,1.27-1.11,1.27h-9.91c-.61,0-1.11-.57-1.11-1.27V1.77c0-.7-.5-1.27-1.11-1.27h-50.28c-.61,0-1.11.57-1.11,1.27v77.63c0,.7-.5,1.27-1.11,1.27h-11.28c-.61,0-1.11-.57-1.11-1.27V1.77c0-.7-.5-1.27-1.11-1.27H9.61c-.61,0-1.11.57-1.11,1.27v77.63c0,.7.5,1.27,1.11,1.27h32.6c.68,0,1.2.69,1.1,1.46l-13.52,102.78c-.08.62-.55,1.08-1.1,1.08h-4.29c-2.71,0-4.9,2.51-4.9,5.61h0c0,5.16-3.65,9.34-8.16,9.34H1.61c-.61,0-1.11.57-1.11,1.27v44.4c0,.7.5,1.27,1.11,1.27h188.91c.61,0,1.11-.57,1.11-1.27v-44.4c0-.7-.5-1.27-1.11-1.27h-5.07c-3.84,0-6.96-3.57-6.96-7.97h0c0-3.85-2.73-6.98-6.1-6.98h-.09c-.55,0-1.02-.46-1.1-1.08l-13.52-102.78c-.1-.77.42-1.46,1.1-1.46h31.73c.61,0,1.11-.57,1.11-1.27Z"/>
</svg>