<svg id="Capa_1" data-name="Capa 1" xmlns="http://www.w3.org/2000/svg" viewBox="0 0 103.3 192.82"><defs><style>.cls-1{fill:#12100b;stroke:#eac798;stroke-miterlimit:10;stroke-width:0.93px;}</style></defs><path class="cls-1" d="M114.47,192.15V191c4.31-1,7.42-4.26,7-8-.48-4-5-6.92-10.09-6.92a2.78,2.78,0,0,1-2.77-1.76l-2-7a67,67,0,0,0-4-10.61c-4.62-9.75-14.37-9.12-6.65-33.59a6.29,6.29,0,0,1,3.22-3.58c.25-.12.48-.24.71-.37,2-.9,4.24-2.35,4-4.28a7.81,7.81,0,0,0,.68-3.15V82.06l.25-.2-.17-.08v-7h0V64.69l-.09.06V55.41l8.09-12.14h1V41.78h0V31.58L108.85,29V22.39H98.28v3.53a3,3,0,0,1-3.18,2.73H93.21A3,3,0,0,1,90,25.9V22.39H80.36v3.53a3,3,0,0,1-3.18,2.73H75.75a3,3,0,0,1-3.2-2.75V22.39h-11v3.14a3,3,0,0,1-3.18,2.72h-1a3,3,0,0,1-3.2-2.74V22.39h-10v6.35l-3.39,2.89-.17.14v11.5h1l8,12V81.8l-.13.06.13.11v29.75a7.72,7.72,0,0,0,.78,3.37c-.07,1.67,1.73,3,3.51,3.84a10.79,10.79,0,0,0,1.59.81,6.22,6.22,0,0,1,2.82,3.36c7.72,24.47-2,23.84-6.66,33.59a68,68,0,0,0-4,10.61l-1.95,7A2.79,2.79,0,0,1,42.93,176c-5.08,0-9.6,2.93-10.08,6.92-.45,3.79,2.66,7,7,8v1.14c-8,.08-14.42,5.49-13.82,11.9.56,5.85,7.08,10.24,14.52,10.24h73.27c7.43,0,14-4.39,14.51-10.24C128.9,197.64,122.46,192.23,114.47,192.15Z" transform="translate(-25.49 -21.92)"/></svg>