<svg id="Capa_1" data-name="Capa 1" xmlns="http://www.w3.org/2000/svg" viewBox="0 0 93.52 203.37"><defs><style>.cls-1{fill:#eac798;stroke:#12100b;stroke-miterlimit:10;stroke-width:0.9px;}</style></defs><path class="cls-1" d="M110.91,194.31v-1.2a8.13,8.13,0,0,0,6.3-8.5c-.43-4.21-4.52-7.31-9.12-7.31a2.53,2.53,0,0,1-2.51-1.85l-1.76-7.36a79.69,79.69,0,0,0-3.58-11.2c-4.18-10.28-13-9.62-6-35.44a6.41,6.41,0,0,1,2.92-3.78c.22-.12.43-.25.64-.39,1.81-1,3.83-2.48,3.59-4.5a9.46,9.46,0,0,0,.61-3.33V78.16a2.28,2.28,0,0,0,.22-.22l-.15-.08V70.53h0V59.83l-.08.07V50l7.32-12.81h.89V35.66h0V24.9l-4.36-2.69v-7H96.27v3.72a2.88,2.88,0,0,1-2.88,2.88H91.68a2.91,2.91,0,0,1-2.9-2.9V15.2H80.05v3.72a2.87,2.87,0,0,1-2.87,2.88h-1.3A2.9,2.9,0,0,1,73,18.9V15.2H63v3.31a2.88,2.88,0,0,1-2.88,2.88h-.88a2.91,2.91,0,0,1-2.89-2.9V15.2h-9v6.7L44.25,25l-.16.15V37.23H45L52.2,49.85v28l-.12.06.12.12v31.39a9.37,9.37,0,0,0,.7,3.56c-.06,1.75,1.56,3.12,3.18,4a8.7,8.7,0,0,0,1.44.86,6.45,6.45,0,0,1,2.55,3.54c7,25.82-1.84,25.16-6,35.44a78.41,78.41,0,0,0-3.58,11.2l-1.77,7.36a2.52,2.52,0,0,1-2.51,1.85c-4.59,0-8.69,3.1-9.12,7.31a8.14,8.14,0,0,0,6.3,8.5v1.2c-7.22.08-13,5.79-12.5,12.55.5,6.17,6.4,10.8,13.13,10.8h66.29c6.72,0,12.63-4.63,13.13-10.8C124,200.1,118.14,194.39,110.91,194.31Z" transform="translate(-30.38 -14.75)"/></svg>